<?xml version="1.0" encoding="iso-8859-1"?>
<!-- Generator: Adobe Illustrator 19.0.0, SVG Export Plug-In . SVG Version: 6.00 Build 0)  -->
<svg version="1.1" id="Capa_1" xmlns="http://www.w3.org/2000/svg" xmlns:xlink="http://www.w3.org/1999/xlink" x="0px" y="0px"
	 viewBox="0 0 349.734 349.734" style="enable-background:new 0 0 349.734 349.734;" xml:space="preserve">
<g>
	<g>
		<path d="M236.027,259.78l-3.56-21.36l-10.56-63.64L200.867,48.1l17.24-42.36c0.961-1.989,0.127-4.381-1.862-5.342
			c-0.664-0.321-1.404-0.452-2.138-0.378h-78.64c-2.198-0.22-4.158,1.384-4.378,3.582c-0.073,0.734,0.057,1.474,0.378,2.138
			l17.4,42.36l-35.16,211.8c-0.194,1.045,0.036,2.125,0.64,3l20.52,30.72l36.4,54.12c1.108,1.911,3.556,2.561,5.467,1.453
			c0.603-0.35,1.103-0.85,1.453-1.453l57.2-84.96C235.99,261.905,236.221,260.825,236.027,259.78z M141.667,8.34h66.4l-14.28,35.12
			h-37.84L141.667,8.34z M161.947,51.7l-7.08,10.24l1.8-10.24H161.947z M151.747,81.34l20.28-29.64h17l-42.72,62.52L151.747,81.34z
			 M143.067,133.7l51.16-74.92l3.32,20l-60,87.64L143.067,133.7z M134.387,185.98l65.16-95.2l3.32,20l-73.92,108L134.387,185.98z
			 M122.187,259.62l3.56-21.36l79.08-115.48l3.32,20l-83.04,121.2L122.187,259.62z M130.107,271.34l80-116.96l3.32,20l-74.88,109.56
			L130.107,271.34z M143.547,291.34l72-105.04l3.32,20l-66.88,97.64L143.547,291.34z M156.987,311.34l63.68-93.12l3.32,20
			l-58.6,85.68L156.987,311.34z M174.867,337.94l-4.48-6.64l55.6-81.24l1.6,9.56L174.867,337.94z"/>
	</g>
</g>
<g>
</g>
<g>
</g>
<g>
</g>
<g>
</g>
<g>
</g>
<g>
</g>
<g>
</g>
<g>
</g>
<g>
</g>
<g>
</g>
<g>
</g>
<g>
</g>
<g>
</g>
<g>
</g>
<g>
</g>
</svg>
