<?xml version="1.0" encoding="iso-8859-1"?>
<!-- Generator: Adobe Illustrator 19.0.0, SVG Export Plug-In . SVG Version: 6.00 Build 0)  -->
<svg version="1.1" id="Capa_1" xmlns="http://www.w3.org/2000/svg" xmlns:xlink="http://www.w3.org/1999/xlink" x="0px" y="0px"
	 viewBox="0 0 349.84 349.84" style="enable-background:new 0 0 349.84 349.84;" xml:space="preserve">
<g>
	<g>
		<path d="M174.92,81.44c-51.628,0-93.48,41.852-93.48,93.48s41.852,93.48,93.48,93.48c51.628,0,93.48-41.852,93.48-93.48
			C268.334,123.32,226.52,81.506,174.92,81.44z M174.92,260.08c-47.033,0-85.16-38.127-85.16-85.16
			c0-47.033,38.127-85.16,85.16-85.16s85.16,38.127,85.16,85.16C260.036,221.934,221.934,260.036,174.92,260.08z"/>
	</g>
</g>
<g>
	<g>
		<path d="M174.92,119.72c-30.486,0-55.2,24.714-55.2,55.2c0,30.486,24.714,55.2,55.2,55.2c30.486,0,55.2-24.714,55.2-55.2
			C230.076,144.452,205.388,119.764,174.92,119.72z M174.92,221.8c-25.891,0-46.88-20.989-46.88-46.88s20.989-46.88,46.88-46.88
			s46.88,20.989,46.88,46.88C221.778,200.802,200.802,221.778,174.92,221.8z"/>
	</g>
</g>
<g>
	<g>
		<path d="M345.68,170.6l-0.16,0.04h-48c-2.312-64.499-54.099-116.233-118.6-118.48v-48c0-2.209-1.791-4-4-4c-2.209,0-4,1.791-4,4
			v48c-64.668,2.174-116.586,54.092-118.76,118.76h-48c-2.297,0-4.16,1.862-4.16,4.16c0,2.298,1.862,4.16,4.16,4.16h48
			c2.338,64.543,54.211,116.276,118.76,118.44v48c0,2.209,1.791,4,4,4c2.209,0,4-1.791,4-4v-48
			c64.668-2.174,116.586-54.092,118.76-118.76h48c2.298,0,4.16-1.862,4.16-4.16C349.84,172.462,347.978,170.6,345.68,170.6z
			 M174.92,289.44c-63.22-0.066-114.454-51.3-114.52-114.52c0-63.248,51.272-114.52,114.52-114.52s114.52,51.272,114.52,114.52
			S238.168,289.44,174.92,289.44z"/>
	</g>
</g>
<g>
</g>
<g>
</g>
<g>
</g>
<g>
</g>
<g>
</g>
<g>
</g>
<g>
</g>
<g>
</g>
<g>
</g>
<g>
</g>
<g>
</g>
<g>
</g>
<g>
</g>
<g>
</g>
<g>
</g>
</svg>
