<?xml version="1.0" encoding="iso-8859-1"?>
<!-- Generator: Adobe Illustrator 19.0.0, SVG Export Plug-In . SVG Version: 6.00 Build 0)  -->
<svg version="1.1" id="Capa_1" xmlns="http://www.w3.org/2000/svg" xmlns:xlink="http://www.w3.org/1999/xlink" x="0px" y="0px"
	 viewBox="0 0 349.52 349.52" style="enable-background:new 0 0 349.52 349.52;" xml:space="preserve">
<g>
	<g>
		<path d="M345.533,236.807c-0.111,0-0.222,0.004-0.333,0.013h-14.4V98.86c0-14.094-11.426-25.52-25.52-25.52H43.88
			C29.801,73.362,18.4,84.781,18.4,98.86v137.96H4c-2.209,0-4,1.791-4,4c0.022,19.52,15.84,35.338,35.36,35.36h278.8
			c19.52-0.022,35.338-15.84,35.36-35.36C349.527,238.611,347.742,236.814,345.533,236.807z M26.6,98.86
			c0-9.499,7.701-17.2,17.2-17.2h261.52c9.499-0.044,17.236,7.621,17.28,17.12c0,0.027,0,0.053,0,0.08v137.96h-8.56v-117.6
			c-0.022-12.384-10.056-22.418-22.44-22.44h-234c-12.384,0.022-22.418,10.056-22.44,22.44v117.6H26.6V98.86z M305.72,119.22v117.6
			l-262.36,0v-117.6c0.022-7.789,6.331-14.098,14.12-14.12H291.6C299.389,105.122,305.698,111.431,305.72,119.22z M314,268.02
			l-0.12,0H35.2c-13.322-0.016-24.654-9.719-26.72-22.88h332.28C338.691,258.316,327.337,268.024,314,268.02z"/>
	</g>
</g>
<g>
	<g>
		<path d="M96.88,252.82H45.36c-2.297,0-4.16,1.862-4.16,4.16c0,2.297,1.863,4.16,4.16,4.16h51.52c2.297,0,4.16-1.862,4.16-4.16
			C101.04,254.682,99.178,252.82,96.88,252.82z"/>
	</g>
</g>
<g>
	<g>
		<path d="M239.123,155.863c-0.054-0.002-0.109-0.003-0.163-0.003h-25.72c-2.209,0-4,1.791-4,4v13h-17.6V125.3c0-2.209-1.791-4-4-4
			h-25.92c-2.209,0-4,1.791-4,4v28.2h-17.6v-15.72c0-2.209-1.791-4-4-4h-25.88c-2.209,0-4,1.791-4,4v78.8c0,2.209,1.791,4,4,4
			h128.72c2.209,0,4-1.791,4-4v-56.56C243.048,157.813,241.331,155.952,239.123,155.863z M131.8,212.46h-17.4v-70.52h17.4V212.46z
			 M157.6,212.46h-17.48l0.04-50.52h17.44V212.46z M183.36,212.46h-17.48l0.04-82.88h17.44V212.46z M209.12,212.46h-17.48
			l0.04-30.88h17.44V212.46z M234.8,212.46h-17.4v-48.28h17.44L234.8,212.46z"/>
	</g>
</g>
<g>
</g>
<g>
</g>
<g>
</g>
<g>
</g>
<g>
</g>
<g>
</g>
<g>
</g>
<g>
</g>
<g>
</g>
<g>
</g>
<g>
</g>
<g>
</g>
<g>
</g>
<g>
</g>
<g>
</g>
</svg>
