<?xml version="1.0" encoding="iso-8859-1"?>
<!-- Generator: Adobe Illustrator 19.0.0, SVG Export Plug-In . SVG Version: 6.00 Build 0)  -->
<svg version="1.1" id="Capa_1" xmlns="http://www.w3.org/2000/svg" xmlns:xlink="http://www.w3.org/1999/xlink" x="0px" y="0px"
	 viewBox="0 0 312.81 312.81" style="enable-background:new 0 0 312.81 312.81;" xml:space="preserve">
<g>
	<g>
		<path d="M274.61,174.675c-2.221-0.394-4.472-0.592-6.728-0.592l0.24,0.04c-15.614-0.063-29.721,9.305-35.72,23.72l-60-17.6
			c1.941-11.406-1.466-23.071-9.24-31.64l62.8-78.04c17.849,11.289,41.47,5.972,52.759-11.876
			c11.289-17.849,5.972-41.47-11.876-52.759c-17.849-11.289-41.47-5.972-52.759,11.876c-9.582,15.149-7.355,34.921,5.357,47.559
			l-62.56,77.64c-12.593-9.183-29.506-9.785-42.72-1.52l-27.44-35.08c15.002-15.27,14.785-39.811-0.485-54.813
			c-15.27-15.002-39.811-14.785-54.813,0.485c-15.002,15.27-14.785,39.811,0.485,54.813c13.033,12.804,33.238,14.768,48.493,4.715
			l27.36,34.96c-15.209,14.749-15.581,39.034-0.833,54.243c0.208,0.215,0.419,0.427,0.633,0.637l-39.6,42.16
			c-16.991-12.729-41.083-9.274-53.812,7.717c-12.729,16.991-9.274,41.083,7.717,53.812c16.991,12.729,41.083,9.274,53.812-7.717
			c10.818-14.44,10.137-34.46-1.637-48.132l40-42.68c17.926,11.249,41.578,5.836,52.827-12.091c1.248-1.988,2.31-4.087,3.173-6.269
			l60,17.56c-3.711,20.903,10.225,40.857,31.128,44.568c20.903,3.711,40.857-10.225,44.568-31.128
			C309.45,198.34,295.513,178.386,274.61,174.675z M216.402,38.163c0.022-16.641,13.519-30.12,30.16-30.12
			c16.635,0.022,30.102,13.525,30.08,30.16c-0.022,16.635-13.525,30.102-30.16,30.08C229.863,68.261,216.402,54.782,216.402,38.163z
			 M59.402,109.443c-16.626-0.022-30.098-13.494-30.12-30.12c0-16.635,13.485-30.12,30.12-30.12s30.12,13.485,30.12,30.12
			C89.522,95.958,76.037,109.443,59.402,109.443z M74.842,274.323c-0.022,16.635-13.508,30.109-30.14,30.12
			c-16.626-0.011-30.1-13.491-30.1-30.12c0-16.635,13.485-30.12,30.12-30.12C61.357,244.203,74.842,257.688,74.842,274.323z
			 M134.362,204.243l0.2-0.2c-16.634,0.154-30.244-13.205-30.398-29.839s13.205-30.244,29.839-30.398s30.244,13.205,30.398,29.839
			c0.001,0.146,0.002,0.292,0.001,0.438C164.402,190.693,150.972,204.177,134.362,204.243z M268.403,242.723
			c-0.094,0-0.187,0.001-0.281,0l0.16-0.2c-16.635,0-30.12-13.485-30.12-30.12s13.485-30.12,30.12-30.12
			c16.635,0,30.12,13.485,30.12,30.12C298.491,229.06,285.06,242.634,268.403,242.723z"/>
	</g>
</g>
<g>
</g>
<g>
</g>
<g>
</g>
<g>
</g>
<g>
</g>
<g>
</g>
<g>
</g>
<g>
</g>
<g>
</g>
<g>
</g>
<g>
</g>
<g>
</g>
<g>
</g>
<g>
</g>
<g>
</g>
</svg>
