<?xml version="1.0" encoding="iso-8859-1"?>
<!-- Generator: Adobe Illustrator 19.0.0, SVG Export Plug-In . SVG Version: 6.00 Build 0)  -->
<svg version="1.1" id="Capa_1" xmlns="http://www.w3.org/2000/svg" xmlns:xlink="http://www.w3.org/1999/xlink" x="0px" y="0px"
	 viewBox="0 0 349.96 349.96" style="enable-background:new 0 0 349.96 349.96;" xml:space="preserve">
<g>
	<g>
		<path d="M333.92,213.54L333.92,213.54h-26.08l-0.28-39.12c0-2.209-1.791-4-4-4h-124.6v-34h26.28c8.837,0,16-7.163,16-16V59.98
			c0-8.837-7.163-16-16-16h-60.52c-8.837,0-16,7.163-16,16v60.48c0,8.837,7.163,16,16,16h25.88v34H46.04c-2.209,0-4,1.791-4,4v38.84
			H16c-8.837,0-16,7.163-16,16v60.68c0,8.837,7.163,16,16,16h60.44c8.837,0,16-7.163,16-16V229.5c0-8.837-7.163-16-16-16H50.36
			v-34.72h120.4v34.8h-26.04c-8.837,0-16,7.163-16,16v60.4c0,8.837,7.163,16,16,16h60.48c8.837,0,16-7.163,16-16V229.5
			c0-8.837-7.163-16-16-16h-26.24v-34.8H299.2l0.28,34.92h-26c-8.837,0-16,7.163-16,16v60.36c0,8.837,7.163,16,16,16h60.48
			c8.837,0,16-7.163,16-16V229.5C349.938,220.663,342.757,213.518,333.92,213.54z M76.44,221.86c4.219,0,7.64,3.421,7.64,7.64v60.48
			c0,4.219-3.421,7.64-7.64,7.64h0H16c-4.219,0-7.64-3.421-7.64-7.64V229.5c0-4.219,3.421-7.64,7.64-7.64H76.44z M205.2,221.86
			c4.219,0,7.64,3.421,7.64,7.64v60.48c0,4.219-3.421,7.64-7.64,7.64h0h-60.48c-4.219,0-7.64-3.421-7.64-7.64V229.5
			c0-4.219,3.421-7.64,7.64-7.64H205.2z M144.72,128.1c-4.219,0-7.64-3.421-7.64-7.64V59.98c0-4.219,3.421-7.64,7.64-7.64h60.48
			c4.219,0,7.64,3.421,7.64,7.64v60.48c0,4.219-3.421,7.64-7.64,7.64H144.72z M341.6,289.98c0,4.219-3.421,7.64-7.64,7.64h0h-60.48
			c-4.219,0-7.64-3.421-7.64-7.64V229.5c0-4.219,3.421-7.64,7.64-7.64h0h60.48c4.219,0,7.64,3.421,7.64,7.64V289.98z"/>
	</g>
</g>
<g>
</g>
<g>
</g>
<g>
</g>
<g>
</g>
<g>
</g>
<g>
</g>
<g>
</g>
<g>
</g>
<g>
</g>
<g>
</g>
<g>
</g>
<g>
</g>
<g>
</g>
<g>
</g>
<g>
</g>
</svg>
