<?xml version="1.0" encoding="iso-8859-1"?>
<!-- Generator: Adobe Illustrator 19.0.0, SVG Export Plug-In . SVG Version: 6.00 Build 0)  -->
<svg version="1.1" id="Capa_1" xmlns="http://www.w3.org/2000/svg" xmlns:xlink="http://www.w3.org/1999/xlink" x="0px" y="0px"
	 viewBox="0 0 303.619 303.619" style="enable-background:new 0 0 303.619 303.619;" xml:space="preserve">
<g>
	<g>
		<g>
			<path d="M303.579,186.418c-0.643-19.626-16.4-35.387-36.023-36.038c-7.653-0.017-15.123,2.345-21.375,6.759H232.1v-67.32
				c-0.022-10.065-8.175-18.218-18.24-18.24h-67.32v-14.08c4.427-6.27,6.79-13.764,6.76-21.44
				c-0.674-20.578-17.903-36.713-38.481-36.039C95.188,0.664,79.423,16.428,78.78,36.059c-0.033,7.676,2.33,15.171,6.76,21.44v14.04
				H18.26C8.195,71.561,0.042,79.715,0.02,89.779v195.6c0.022,10.065,8.175,18.218,18.24,18.24H89.7c2.209,0,4-1.791,4-4v-25.36
				c0.015-0.911-0.281-1.8-0.84-2.52c-3.856-5.025-5.938-11.186-5.92-17.52c-0.594-15.983,11.881-29.422,27.864-30.016
				c15.983-0.594,29.422,11.881,30.016,27.864c0.027,0.717,0.027,1.435,0,2.152c0.018,6.334-2.064,12.495-5.92,17.52
				c-0.559,0.72-0.855,1.609-0.84,2.52v25.28c0,2.209,1.791,4,4,4h71.8c10.065-0.022,18.218-8.175,18.24-18.24v-67.16h14.04
				c6.258,4.422,13.738,6.784,21.4,6.76C288.118,224.225,304.253,206.996,303.579,186.418z M295.244,188.555
				c-0.563,15.149-12.715,27.301-27.864,27.864l0.2,0.16c-6.334,0.018-12.495-2.064-17.52-5.92c-0.72-0.559-1.609-0.855-2.52-0.84
				h-19.6c-2.209,0-4,1.791-4,4v71.6c-0.066,5.5-4.578,9.906-10.079,9.84c0,0-0.001,0-0.001,0h-67.32v-19.64
				c4.422-6.258,6.784-13.738,6.76-21.4c0.674-20.578-15.461-37.807-36.039-38.481c-20.578-0.674-37.807,15.461-38.481,36.039
				c-0.027,0.814-0.027,1.628,0,2.442c-0.022,7.662,2.341,15.141,6.76,21.4v19.64H18.26c-5.407-0.065-9.775-4.433-9.84-9.84v-195.6
				c0.022-5.47,4.45-9.898,9.92-9.92H89.7c2.209,0,4-1.791,4-4v-19.76c0.015-0.911-0.281-1.8-0.84-2.52
				c-3.854-5.026-5.935-11.187-5.92-17.52c-0.014-15.994,12.94-28.971,28.935-28.985c15.994-0.014,28.971,12.94,28.985,28.935
				c0.006,6.347-2.074,12.521-5.92,17.571c-0.559,0.72-0.855,1.609-0.84,2.52v19.56c0,2.209,1.791,4,4,4h71.76
				c5.47,0.022,9.898,4.45,9.92,9.92v71.68c0,2.209,1.791,4,4,4h19.56c0.911,0.015,1.8-0.281,2.52-0.84
				c5.025-3.856,11.186-5.938,17.52-5.92C283.363,159.134,295.838,172.572,295.244,188.555z"/>
			<path d="M267.54,150.379c0.005,0,0.01,0.001,0.016,0.001c0.008,0,0.016-0.001,0.025-0.001H267.54z"/>
		</g>
	</g>
</g>
<g>
</g>
<g>
</g>
<g>
</g>
<g>
</g>
<g>
</g>
<g>
</g>
<g>
</g>
<g>
</g>
<g>
</g>
<g>
</g>
<g>
</g>
<g>
</g>
<g>
</g>
<g>
</g>
<g>
</g>
</svg>
