<?xml version="1.0" encoding="iso-8859-1"?>
<!-- Generator: Adobe Illustrator 19.0.0, SVG Export Plug-In . SVG Version: 6.00 Build 0)  -->
<svg version="1.1" id="Capa_1" xmlns="http://www.w3.org/2000/svg" xmlns:xlink="http://www.w3.org/1999/xlink" x="0px" y="0px"
	 viewBox="0 0 348.84 348.84" style="enable-background:new 0 0 348.84 348.84;" xml:space="preserve">
<g>
	<g>
		<path d="M257.74,183.04H230.5c8.036-7.309,14.571-16.113,19.24-25.92c8.099-0.855,14.263-7.656,14.32-15.8v-14.16
			c2.986-1.373,5.838-3.02,8.52-4.92l12.28,7.08c7.636,4.383,17.378,1.773,21.8-5.84l6.36-11c4.513-7.597,2.013-17.415-5.585-21.927
			c-0.018-0.011-0.037-0.022-0.055-0.033l-12.28-7.08c0-1.64,0.24-3.28,0.24-4.92s0-3.28-0.24-4.92l12.28-7.08
			c7.613-4.422,10.223-14.164,5.84-21.8l-6.36-11c-4.422-7.613-14.164-10.223-21.8-5.84l-12.28,7.08
			c-2.682-1.899-5.534-3.546-8.52-4.92V16c0-8.837-7.163-16-16-16h-12.68c-8.837,0-16,7.163-16,16v14.16
			c-2.986,1.373-5.838,3.02-8.52,4.92L198.78,28c-7.636-4.383-17.378-1.773-21.8,5.84l-1.92,3.36h-0.56
			c-46.259,0.127-83.657,37.73-83.53,83.989c0.065,23.572,10.059,46.026,27.53,61.851H91.26
			c-33.819,0.044-61.218,27.461-61.24,61.28v100.52c0,2.209,1.791,4,4,4h280.8c2.209,0,4-1.791,4-4V244.32
			C318.798,210.563,291.497,183.172,257.74,183.04z M177.7,49.04l6.36-11c2.107-3.656,6.779-4.911,10.435-2.803
			c0.002,0.001,0.004,0.002,0.005,0.003l14.64,8.44c1.474,0.904,3.362,0.759,4.68-0.36c3.445-2.732,7.272-4.942,11.36-6.56
			c1.67-0.6,2.745-2.229,2.64-4V16c0-4.219,3.421-7.64,7.64-7.64h12.72c4.219,0,7.64,3.421,7.64,7.64v16.92
			c-0.105,1.771,0.97,3.4,2.64,4c4.087,1.62,7.914,3.83,11.36,6.56c1.318,1.119,3.206,1.264,4.68,0.36l14.64-8.44
			c3.659-2.088,8.317-0.839,10.44,2.8l6.36,11c2.11,3.654,0.859,8.327-2.795,10.437c-0.002,0.001-0.004,0.002-0.005,0.003
			l-14.64,8.44c-1.434,0.807-2.228,2.41-2,4.04c0.635,4.35,0.635,8.77,0,13.12c-0.292,1.693,0.529,3.383,2.04,4.2l14.64,8.44
			c3.639,2.123,4.888,6.781,2.8,10.44l-6.32,11c-2.107,3.656-6.779,4.911-10.435,2.803c-0.002-0.001-0.004-0.002-0.005-0.003
			l-14.72-8.44c-1.474-0.904-3.362-0.759-4.68,0.36c-3.436,2.712-7.25,4.909-11.32,6.52c-1.67,0.6-2.745,2.229-2.64,4v16.76
			c0.014,3.96-3.014,7.267-6.96,7.6c-0.986-0.411-2.094-0.411-3.08,0h-10.24c-4.219,0-7.64-3.421-7.64-7.64v-16.84
			c0.105-1.771-0.97-3.4-2.64-4c-4.088-1.618-7.915-3.828-11.36-6.56c-1.318-1.119-3.206-1.264-4.68-0.36l-14.76,8.6
			c-3.654,2.11-8.327,0.859-10.437-2.795c-0.001-0.002-0.002-0.004-0.003-0.005l-6.36-11c-2.11-3.654-0.859-8.327,2.795-10.437
			c0.002-0.001,0.004-0.002,0.005-0.003l14.64-8.44c1.511-0.817,2.332-2.507,2.04-4.2c-0.635-4.35-0.635-8.77,0-13.12
			c0.292-1.693-0.529-3.383-2.04-4.2l-14.64-8.44C176.861,57.357,175.612,52.699,177.7,49.04z M310.5,340.68h-272v-96.36
			c0.022-29.162,23.598-52.828,52.76-52.96h39.24c2.15,0.509,4.305-0.821,4.814-2.97c0.465-1.963-0.604-3.965-2.494-4.67
			c-34.659-23.044-44.075-69.821-21.031-104.479c13.154-19.785,34.868-32.208,58.591-33.521c-3.678,7.479-0.997,16.529,6.16,20.8
			l12.28,7.08c0,1.64-0.24,3.28-0.24,4.92s0,3.28,0.24,4.92l-12.28,7.08c-7.71,4.317-10.461,14.067-6.144,21.777
			c0.034,0.061,0.069,0.122,0.104,0.183l6.36,11c4.422,7.613,14.164,10.223,21.8,5.84l12.28-7.08c2.682,1.899,5.534,3.547,8.52,4.92
			v14.16c0,8.837,7.163,16,16,16h4.96c-5.851,10.637-14.179,19.706-24.28,26.44c-2.032,0.868-2.975,3.218-2.108,5.25
			c0.744,1.743,2.61,2.724,4.468,2.35h39.16c29.193,0.088,52.818,23.767,52.84,52.96V340.68z"/>
	</g>
</g>
<g>
	<g>
		<path d="M241.939,45.6c-18.207,0-32.991,14.713-33.079,32.92c-0.066,18.292,14.708,33.174,33,33.24c0.027,0,0.054,0,0.08,0
			c18.27,0,33.08-14.811,33.08-33.08C275.019,60.41,260.209,45.6,241.939,45.6z M241.939,103.44
			c-13.675,0-24.76-11.086-24.759-24.76c0-0.053,0-0.106,0-0.159c0.11-13.603,11.157-24.578,24.76-24.6v0
			c13.675,0,24.76,11.086,24.759,24.76C266.699,92.355,255.614,103.44,241.939,103.44z"/>
	</g>
</g>
<g>
</g>
<g>
</g>
<g>
</g>
<g>
</g>
<g>
</g>
<g>
</g>
<g>
</g>
<g>
</g>
<g>
</g>
<g>
</g>
<g>
</g>
<g>
</g>
<g>
</g>
<g>
</g>
<g>
</g>
</svg>
