<?xml version="1.0" encoding="iso-8859-1"?>
<!-- Generator: Adobe Illustrator 19.0.0, SVG Export Plug-In . SVG Version: 6.00 Build 0)  -->
<svg version="1.1" id="Capa_1" xmlns="http://www.w3.org/2000/svg" xmlns:xlink="http://www.w3.org/1999/xlink" x="0px" y="0px"
	 viewBox="0 0 349.2 349.2" style="enable-background:new 0 0 349.2 349.2;" xml:space="preserve">
<g>
	<g>
		<path d="M317.36,80.961c-0.053,0-0.107,0-0.16,0H32c-17.673,0-32,14.327-32,32v123.28c0,17.673,14.327,32,32,32h285.2
			c17.673,0,32-14.327,32-32V113.12C349.288,95.447,335.033,81.049,317.36,80.961z M341.2,236.24c0,13.255-10.745,24-24,24H32
			c-13.255,0-24-10.745-24-24V113.12c0-13.255,10.745-24,24-24h285.2c13.255,0,24,10.745,24,24V236.24z"/>
	</g>
</g>
<g>
	<g>
		<path d="M324.406,123.96c-0.002,0-0.004,0-0.006,0c-9.38-0.022-16.978-7.62-17-17c0-2.209-1.791-4-4-4H45.96c-2.209,0-4,1.791-4,4
			c-0.022,9.38-7.62,16.978-17,17c-2.209,0-4,1.791-4,4v93.28c0,2.209,1.791,4,4,4c9.38,0.022,16.978,7.62,17,17
			c0,2.209,1.791,4,4,4h257.28c2.209,0,4-1.791,4-4c0.022-9.38,7.62-16.978,17-17c2.209,0,4-1.791,4-4v-93.12
			C328.33,125.913,326.614,124.05,324.406,123.96z M299.56,238.24H49.76c-1.794-10.679-10.161-19.046-20.84-20.84v-85.44
			c10.679-1.794,19.046-10.161,20.84-20.84h249.68c1.794,10.679,10.161,19.046,20.84,20.84l0.12,85.44
			C309.721,219.194,301.354,227.561,299.56,238.24z"/>
	</g>
</g>
<g>
	<g>
		<path d="M174.6,119.56c-30.442,0-55.12,24.678-55.12,55.12c0,30.442,24.678,55.12,55.12,55.12s55.12-24.678,55.12-55.12
			C229.676,144.257,205.024,119.604,174.6,119.56z M174.6,221.48c-25.847,0-46.8-20.953-46.8-46.8s20.953-46.8,46.8-46.8
			c25.847,0,46.8,20.953,46.8,46.8c0,0,0,0,0,0C221.378,200.518,200.438,221.458,174.6,221.48z"/>
	</g>
</g>
<g>
	<g>
		<path d="M191.28,176.4c-0.702-1.714-1.766-3.256-3.12-4.52c-1.317-1.2-2.851-2.137-4.52-2.76c-1.68-0.64-3.933-1.347-6.76-2.12
			v-14.28c2.71,0.766,4.791,2.94,5.44,5.68c0.323,2.142,2.195,3.705,4.36,3.64c1.144,0.041,2.251-0.411,3.04-1.24
			c0.808-0.77,1.258-1.844,1.24-2.96c-0.036-1.18-0.322-2.339-0.84-3.4c-0.615-1.313-1.424-2.527-2.4-3.6
			c-1.231-1.487-2.792-2.665-4.56-3.44c-2.005-0.82-4.122-1.333-6.28-1.52v-3.68c0-1.867-0.733-2.8-2.2-2.8s-2.187,0.96-2.16,2.88
			v3.64c-4.024,0.121-7.871,1.682-10.84,4.4c-4.21,4.695-4.95,11.554-1.84,17.04c1.248,1.893,2.973,3.424,5,4.44
			c2.46,1.197,5.033,2.148,7.68,2.84v16c-1.353-0.341-2.611-0.984-3.68-1.88c-0.873-0.754-1.581-1.68-2.08-2.72
			c-0.607-1.398-1.141-2.827-1.6-4.28c-0.249-0.817-0.772-1.523-1.48-2c-0.773-0.499-1.68-0.75-2.6-0.72
			c-1.205-0.03-2.367,0.449-3.2,1.32c-0.823,0.763-1.288,1.837-1.28,2.96c0.024,1.555,0.35,3.09,0.96,4.52
			c0.715,1.644,1.717,3.148,2.96,4.44c1.431,1.487,3.127,2.694,5,3.56c2.211,1.016,4.577,1.652,7,1.88v8.96
			c-0.059,0.803,0.107,1.607,0.48,2.32c0.402,0.536,1.053,0.824,1.72,0.76c0.711,0.092,1.402-0.278,1.72-0.92
			c0.318-0.953,0.454-1.957,0.4-2.96v-8.32c2.988-0.181,5.892-1.057,8.48-2.56c2.228-1.345,4.052-3.266,5.28-5.56
			c1.221-2.246,1.854-4.764,1.84-7.32C192.455,180.154,192.06,178.206,191.28,176.4z M167.96,163.2c-2.066-2.389-2.066-5.931,0-8.32
			c1.319-1.053,2.846-1.817,4.48-2.24l0.12,13.08C170.88,165.181,169.319,164.326,167.96,163.2z M184.12,183.24
			c0.023,1.808-0.65,3.555-1.88,4.88c-1.433,1.486-3.318,2.456-5.36,2.76v-15c1.97,0.541,3.808,1.48,5.4,2.76
			C183.546,179.824,184.22,181.51,184.12,183.24z"/>
	</g>
</g>
<g>
</g>
<g>
</g>
<g>
</g>
<g>
</g>
<g>
</g>
<g>
</g>
<g>
</g>
<g>
</g>
<g>
</g>
<g>
</g>
<g>
</g>
<g>
</g>
<g>
</g>
<g>
</g>
<g>
</g>
</svg>
