<?xml version="1.0" encoding="iso-8859-1"?>
<!-- Generator: Adobe Illustrator 19.0.0, SVG Export Plug-In . SVG Version: 6.00 Build 0)  -->
<svg version="1.1" id="Capa_1" xmlns="http://www.w3.org/2000/svg" xmlns:xlink="http://www.w3.org/1999/xlink" x="0px" y="0px"
	 viewBox="0 0 340 340" style="enable-background:new 0 0 340 340;" xml:space="preserve">
<g>
	<g>
		<path d="M199.712,128.52l-18.4-10.48c0.576-5.318,0.576-10.682,0-16l18.4-10.64c10.009-5.784,13.445-18.58,7.68-28.6l-9.04-15.64
			c-5.797-9.97-18.559-13.385-28.56-7.64l-18.44,10.52c-4.286-3.154-8.899-5.836-13.76-8V20.92
			C137.57,9.375,128.217,0.022,116.672,0h-18.04c-11.545,0.022-20.898,9.375-20.92,20.92v21.12c-4.861,2.163-9.475,4.846-13.76,8
			l-18.4-10.64c-10.02-5.765-22.816-2.329-28.6,7.68l-9.04,15.64c-5.738,10.011-2.305,22.777,7.68,28.56l18.4,10.76
			c-0.576,5.318-0.576,10.682,0,16l-18.4,10.64c-10.009,5.784-13.445,18.58-7.68,28.6l9.04,15.64
			c5.798,9.994,18.59,13.412,28.6,7.64l18.4-10.64c4.286,3.153,8.899,5.835,13.76,8v21.24c0.022,11.545,9.375,20.898,20.92,20.92
			h18.04c11.545-0.022,20.898-9.375,20.92-20.92v-21.4c4.86-2.166,9.473-4.848,13.76-8l18.4,10.64
			c10.02,5.765,22.816,2.329,28.6-7.68l9.04-15.64C213.13,147.069,209.697,134.303,199.712,128.52z M200.312,153.04l-9.04,15.64
			c-3.501,6.014-11.214,8.051-17.228,4.55c-0.017-0.01-0.034-0.02-0.052-0.03l-20.8-12c-1.484-0.955-3.418-0.825-4.76,0.32
			c-5.021,3.992-10.6,7.227-16.56,9.6c-1.67,0.6-2.745,2.229-2.64,4v24c0,6.959-5.641,12.6-12.6,12.6h-18.04
			c-6.959,0-12.6-5.641-12.601-12.599c0-0.04,0-0.08,0.001-0.121v-24c0.105-1.771-0.97-3.4-2.64-4
			c-5.96-2.373-11.539-5.608-16.56-9.6c-1.377-1.127-3.334-1.209-4.8-0.2l-20.8,12c-6.021,3.473-13.717,1.415-17.2-4.6l-9.04-15.64
			c-3.473-6.021-1.415-13.717,4.6-17.2l20.8-12c1.511-0.817,2.332-2.507,2.04-4.2c-0.361-3.16-0.495-6.341-0.4-9.52
			c-0.003-3.212,0.224-6.42,0.68-9.6c0.292-1.693-0.529-3.383-2.04-4.2l-20.8-12c-5.996-3.498-8.05-11.176-4.6-17.2l9.04-15.64
			c3.483-6.015,11.179-8.073,17.2-4.6l20.8,12c1.474,0.904,3.362,0.759,4.68-0.36c5.023-3.979,10.602-7.2,16.56-9.56
			c1.67-0.6,2.745-2.229,2.64-4v-24c0-6.959,5.641-12.6,12.6-12.6h18.04c6.959,0,12.6,5.641,12.6,12.6v24
			c-0.105,1.771,0.97,3.4,2.64,4c5.96,2.372,11.54,5.606,16.56,9.6c1.318,1.119,3.206,1.264,4.68,0.36l20.8-12
			c6.024-3.45,13.702-1.396,17.2,4.6l9.04,15.64c3.473,6.021,1.415,13.717-4.6,17.2l-20.8,12c-1.511,0.817-2.332,2.507-2.04,4.2
			c0.925,6.353,0.925,12.807,0,19.16c-0.292,1.693,0.529,3.383,2.04,4.2l20.8,12C201.727,139.323,203.785,147.019,200.312,153.04z"
			/>
	</g>
</g>
<g>
	<g>
		<path d="M107.632,64.68c-25.007,0-45.28,20.273-45.28,45.28c0,25.007,20.273,45.28,45.28,45.28c24.976,0,45.236-20.224,45.28-45.2
			C152.934,85.01,132.662,64.702,107.632,64.68z M107.632,146.92v-0.04c-20.412,0-36.96-16.548-36.96-36.96
			c0-20.412,16.548-36.96,36.96-36.96c20.412,0,36.96,16.548,36.96,36.96c0,0.04,0,0.08,0,0.12
			C144.548,130.421,128.013,146.92,107.632,146.92z"/>
	</g>
</g>
<g>
	<g>
		<path d="M300.872,268.08l-13.64-8c0-1.88,0.28-3.76,0.28-5.6c0-1.84,0-3.76-0.28-5.6l13.64-8c3.915-2.26,6.766-5.989,7.92-10.36
			c1.194-4.371,0.589-9.038-1.68-12.96l-6.96-12c-4.735-8.139-15.153-10.927-23.32-6.24l-13.64,8c-3.05-2.19-6.305-4.079-9.72-5.64
			V185.8c0-9.433-7.647-17.08-17.08-17.08h-13.88c-9.433,0-17.08,7.647-17.08,17.08v15.76c-3.413,1.548-6.669,3.423-9.72,5.6
			l-13.64-8c-8.167-4.687-18.585-1.899-23.32,6.24l-6.96,12c-4.79,8.126-2.086,18.597,6.041,23.387
			c0.053,0.031,0.106,0.062,0.159,0.093l13.64,8c0,1.88-0.28,3.76-0.28,5.6c0,1.84,0,3.76,0.28,5.6l-13.64,8
			c-8.139,4.735-10.927,15.153-6.24,23.32l6.96,12c4.774,8.072,15.154,10.8,23.28,6.12l13.64-8c3.05,2.19,6.305,4.079,9.72,5.64
			v15.76c0,9.433,7.647,17.08,17.08,17.08h13.96c9.433,0,17.08-7.647,17.08-17.08v-15.68c3.414-1.547,6.669-3.422,9.72-5.6l13.64,8
			c8.167,4.687,18.585,1.899,23.32-6.24l6.96-12C311.799,283.233,309.011,272.815,300.872,268.08z M299.992,286.84l-6.96,12
			c-2.414,4.193-7.769,5.635-11.962,3.222c-0.013-0.007-0.025-0.015-0.038-0.022l-16-9.28c-1.474-0.904-3.362-0.759-4.68,0.36
			c-3.797,3.013-8.015,5.452-12.52,7.24c-1.67,0.6-2.745,2.229-2.64,4v18.52c0,4.838-3.922,8.76-8.76,8.76c0,0,0,0,0,0h-13.96
			c-4.838,0-8.76-3.922-8.76-8.76v-18.4c0.105-1.771-0.97-3.4-2.64-4c-4.505-1.788-8.723-4.227-12.52-7.24
			c-1.329-1.013-3.147-1.092-4.56-0.2l-16,9.28c-4.199,2.419-9.563,0.989-12-3.2l-6.96-12c-2.419-4.199-0.989-9.563,3.2-12l16-9.28
			c1.511-0.817,2.332-2.507,2.04-4.2c-0.697-4.802-0.697-9.679,0-14.48c0.292-1.693-0.529-3.383-2.04-4.2l-16-9.24
			c-4.193-2.414-5.635-7.769-3.222-11.962c0.007-0.013,0.015-0.025,0.022-0.038l6.96-12c2.437-4.189,7.801-5.619,12-3.2l16,9.28
			c1.474,0.904,3.362,0.759,4.68-0.36c3.798-3.011,8.016-5.45,12.52-7.24c1.67-0.6,2.745-2.229,2.64-4v-18.4
			c0-4.838,3.922-8.76,8.76-8.76c0,0,0,0,0,0h13.8c4.838,0,8.76,3.922,8.76,8.76c0,0,0,0,0,0v18.52c-0.105,1.771,0.97,3.4,2.64,4
			c4.505,1.788,8.723,4.227,12.52,7.24c1.318,1.119,3.206,1.264,4.68,0.36l16-9.24c4.181-2.434,9.544-1.019,11.978,3.162
			c0.007,0.013,0.015,0.025,0.022,0.038l6.96,12c2.419,4.199,0.989,9.563-3.2,12l0.04-0.2l-16,9.24
			c-1.511,0.817-2.332,2.507-2.04,4.2c0.348,2.398,0.522,4.817,0.52,7.24c-0.001,2.423-0.175,4.842-0.52,7.24
			c-0.203,1.625,0.605,3.21,2.04,4l16,9.24C300.981,277.277,302.411,282.641,299.992,286.84z"/>
	</g>
</g>
<g>
	<g>
		<path d="M229.432,218.56c-19.882,0-36,16.118-36,36s16.118,36,36,36s36-16.118,36-36S249.314,218.56,229.432,218.56z
			 M229.472,282.04c-0.013,0-0.027,0-0.04,0v-0.12c-15.199,0-27.52-12.321-27.52-27.52c0-15.199,12.321-27.52,27.52-27.52
			c15.199,0,27.52,12.321,27.52,27.52C256.996,269.621,244.693,281.996,229.472,282.04z"/>
	</g>
</g>
<g>
	<g>
		<path d="M334.872,110.04l-0.16-9.96c-0.131-7.335-6.104-13.219-13.44-13.24h-0.2h-10.6c-1.002-2.037-2.165-3.99-3.48-5.84
			l5.16-9.24c3.588-6.487,1.265-14.653-5.2-18.28l-8.96-4.68c-6.46-3.474-14.511-1.145-18.12,5.24l-5.12,9.2
			c-2.263-0.179-4.537-0.179-6.8,0l-5.44-9.08c-3.823-6.357-12.064-8.43-18.44-4.64l-8.6,5.16c-6.357,3.823-8.43,12.064-4.64,18.44
			l5.44,9.08c-0.64,0.96-1.227,1.933-1.76,2.92c-0.56,1-1.08,2-1.52,3.04h-10.6c-7.443,0.151-13.355,6.308-13.203,13.751
			c0.001,0.043,0.002,0.086,0.003,0.129v10c0.025,3.553,1.464,6.951,4,9.44c2.561,2.477,5.997,3.843,9.56,3.8h10.6
			c1.003,2.036,2.167,3.989,3.48,5.84l-5.16,9.24c-3.588,6.487-1.265,14.653,5.2,18.28l9.12,4.76c1.982,1.102,4.212,1.681,6.48,1.68
			c1.258,0.001,2.51-0.174,3.72-0.52c3.411-0.985,6.29-3.288,8-6.4l5.16-9.24c2.263,0.186,4.537,0.186,6.8,0l5.4,9.12
			c3.823,6.357,12.064,8.43,18.44,4.64l8.56-5.16c6.357-3.823,8.43-12.064,4.64-18.44l-5.44-9.04c0.64-0.96,1.24-1.92,1.76-2.92
			c0.52-1,1.08-2,1.52-3.04h10.6c7.444-0.126,13.376-6.263,13.25-13.706C334.88,110.262,334.877,110.151,334.872,110.04z
			 M326.392,110.2c0.068,2.783-2.099,5.11-4.88,5.24l-13.32,0.2c-1.782-0.099-3.414,0.994-4,2.68
			c-0.596,1.569-1.305,3.093-2.12,4.56c-0.818,1.477-1.74,2.894-2.76,4.24c-1.062,1.337-1.159,3.201-0.24,4.64l6.92,11.44
			c1.346,2.364,0.608,5.369-1.68,6.84l-8.56,5.12c-2.432,1.441-5.572,0.656-7.04-1.76l-6.72-11.36
			c-0.845-1.496-2.552-2.285-4.24-1.96c-3.342,0.489-6.738,0.489-10.08,0c-1.643-0.188-3.233,0.654-4,2.12l-6.76,11.84
			c-1.384,2.456-4.483,3.347-6.96,2l-8.76-4.8c-2.474-1.369-3.37-4.485-2.001-6.959c0,0,0-0.001,0.001-0.001l6.48-11.64
			c0.874-1.473,0.713-3.338-0.4-4.64c-2.13-2.614-3.869-5.525-5.16-8.64c-0.628-1.638-2.25-2.676-4-2.56l-13.32,0.2
			c-1.352,0-2.654-0.515-3.64-1.44c-0.981-0.943-1.543-2.24-1.56-3.6v-10c-0.045-2.827,2.211-5.155,5.039-5.2c0,0,0.001,0,0.001,0
			l13.32-0.2c1.782,0.099,3.414-0.994,4-2.68c0.569-1.58,1.251-3.117,2.04-4.6c0.814-1.479,1.737-2.896,2.76-4.24
			c1.094-1.336,1.206-3.223,0.28-4.68l-7.04-11.4c-1.384-2.403-0.604-5.47,1.76-6.92l8.56-5.12c2.422-1.46,5.568-0.681,7.028,1.741
			c0.004,0.006,0.008,0.013,0.012,0.019l6.84,11.36c0.845,1.496,2.552,2.285,4.24,1.96c3.329-0.488,6.711-0.488,10.04,0
			c1.643,0.188,3.233-0.654,4-2.12l6.68-11.84c1.369-2.474,4.485-3.37,6.959-2.001c0,0,0.001,0,0.001,0.001l8.72,4.88
			c2.456,1.384,3.347,4.483,2,6.96l-6.44,11.64c-0.874,1.473-0.713,3.338,0.4,4.64c2.132,2.613,3.871,5.524,5.16,8.64
			c0.628,1.638,2.25,2.676,4,2.56l13.32-0.2c2.797,0,5.076,2.244,5.12,5.04V110.2z"/>
	</g>
</g>
<g>
	<g>
		<path d="M285.427,82.735c-0.105-0.059-0.21-0.118-0.315-0.175c-12.997-7.22-29.385-2.538-36.606,10.459
			s-2.538,29.386,10.459,36.606c12.983,7.213,29.355,2.548,36.587-10.425C302.825,106.335,298.292,90.009,285.427,82.735z
			 M288.272,115.16L288.272,115.16c-5.015,8.965-16.348,12.167-25.313,7.152c-8.965-5.015-12.167-16.348-7.152-25.313
			c2.396-4.283,6.388-7.446,11.105-8.799c1.665-0.476,3.388-0.718,5.12-0.72c10.295,0.034,18.613,8.406,18.579,18.701
			C290.6,109.323,289.796,112.412,288.272,115.16z"/>
	</g>
</g>
<g>
</g>
<g>
</g>
<g>
</g>
<g>
</g>
<g>
</g>
<g>
</g>
<g>
</g>
<g>
</g>
<g>
</g>
<g>
</g>
<g>
</g>
<g>
</g>
<g>
</g>
<g>
</g>
<g>
</g>
</svg>
