<?xml version="1.0" encoding="iso-8859-1"?>
<!-- Generator: Adobe Illustrator 19.0.0, SVG Export Plug-In . SVG Version: 6.00 Build 0)  -->
<svg version="1.1" id="Capa_1" xmlns="http://www.w3.org/2000/svg" xmlns:xlink="http://www.w3.org/1999/xlink" x="0px" y="0px"
	 viewBox="0 0 314 314" style="enable-background:new 0 0 314 314;" xml:space="preserve">
<g>
	<g>
		<path d="M145.08,1.24C64.954,1.24,0,66.195,0,146.32c0,80.063,64.857,144.992,144.92,145.08c2.209,0,4-1.791,4-4V150.48H286
			c2.207,0.09,4.07-1.626,4.16-3.833c0.004-0.109,0.004-0.218,0-0.327C290.16,66.195,225.205,1.24,145.08,1.24z M144.92,142.16
			c-2.209,0-4,1.791-4,4V283C65.424,280.712,6.078,217.656,8.366,142.16C10.654,66.664,73.71,7.318,149.206,9.605
			c72.281,2.191,130.364,60.273,132.555,132.555H144.92z"/>
	</g>
</g>
<g>
	<g>
		<path d="M309.859,163.826c-0.073,0.003-0.146,0.007-0.219,0.014H168.92c-2.209,0-4,1.791-4,4v140.92c0,2.209,1.791,4,4,4
			c80.089-0.088,144.992-64.991,145.08-145.08C313.921,165.472,312.067,163.747,309.859,163.826z M172.92,304.68V172.16h132.52
			C303.154,244.381,245.141,302.394,172.92,304.68z"/>
	</g>
</g>
<g>
</g>
<g>
</g>
<g>
</g>
<g>
</g>
<g>
</g>
<g>
</g>
<g>
</g>
<g>
</g>
<g>
</g>
<g>
</g>
<g>
</g>
<g>
</g>
<g>
</g>
<g>
</g>
<g>
</g>
</svg>
