<?xml version="1.0" encoding="iso-8859-1"?>
<!-- Generator: Adobe Illustrator 19.0.0, SVG Export Plug-In . SVG Version: 6.00 Build 0)  -->
<svg version="1.1" id="Capa_1" xmlns="http://www.w3.org/2000/svg" xmlns:xlink="http://www.w3.org/1999/xlink" x="0px" y="0px"
	 viewBox="0 0 318.8 318.8" style="enable-background:new 0 0 318.8 318.8;" xml:space="preserve">
<g>
	<g>
		<path d="M159.4,0C71.366,0,0,71.366,0,159.4s71.366,159.4,159.4,159.4s159.4-71.366,159.4-159.4
			C318.69,71.411,247.389,0.11,159.4,0z M159.4,310.48v0.04c-83.439,0-151.08-67.641-151.08-151.08S75.961,8.36,159.4,8.36
			c83.424,0,151.058,67.616,151.08,151.04C310.37,242.793,242.793,310.37,159.4,310.48z"/>
	</g>
</g>
<g>
	<g>
		<path d="M163.4,146.8V60.88c0-2.209-1.791-4-4-4c-2.209,0-4,1.791-4,4v85.96c-5.488,1.733-9.235,6.805-9.28,12.56
			c0.013,1.191,0.188,2.376,0.52,3.52l-49.56,38.8c-1.811,1.414-2.134,4.029-0.72,5.84c1.414,1.812,4.029,2.134,5.84,0.72
			l49.2-38.44c2.28,1.804,5.093,2.803,8,2.84c7.312,0.033,13.267-5.868,13.3-13.18C172.726,153.683,168.953,148.531,163.4,146.8z
			 M159.4,164.36c-2.739,0-4.96-2.221-4.96-4.96s2.221-4.96,4.96-4.96s4.96,2.221,4.96,4.96
			C164.36,162.139,162.139,164.36,159.4,164.36z"/>
	</g>
</g>
<g>
	<g>
		<path d="M276.2,92.4c0,0,0-0.2,0-0.32l-0.24-0.24C264.138,71.59,247.27,54.749,227,42.96l-0.24-0.2h-0.32
			c-41.491-23.926-92.589-23.926-134.08,0h-0.28L91.84,43C71.61,54.778,54.771,71.589,42.96,91.8l-0.2,0.24c0,0,0,0.2,0,0.32
			c-23.926,41.491-23.926,92.589,0,134.08c0,0,0,0.2,0,0.32l0.32,0.4c11.783,20.147,28.563,36.914,48.72,48.68l0.24,0.2l0.48,0.2
			c20.339,11.722,43.404,17.888,66.88,17.88c23.472,0.021,46.537-6.132,66.88-17.84h0.44l0.28-0.24
			c20.197-11.815,36.995-28.654,48.76-48.88l0.28-0.36c0,0,0-0.24,0-0.32c11.826-20.379,18.063-43.518,18.08-67.08
			C294.137,135.88,287.957,112.771,276.2,92.4z M270.88,219.08l-6.76-4c-1.977-1.16-4.52-0.497-5.68,1.48
			c-1.16,1.977-0.497,4.52,1.48,5.68l6.8,4c-10.278,16.371-24.148,30.187-40.56,40.4l-0.04-0.04l-4-6.8
			c-1.105-1.999-3.621-2.725-5.62-1.62c-1.999,1.105-2.725,3.621-1.62,5.62l4,6.88c-17.084,9.223-36.076,14.358-55.48,15v-8
			c0-2.209-1.791-4-4-4c-2.135,0.17-3.83,1.865-4,4v8c-19.348-0.599-38.295-5.664-55.36-14.8l4-6.76
			c1.16-1.977,0.497-4.52-1.48-5.68c-1.977-1.16-4.52-0.497-5.68,1.48l-4,6.8c-16.487-10.24-30.415-24.113-40.72-40.56l6.8-4
			c1.999-1.105,2.725-3.621,1.62-5.62s-3.621-2.725-5.62-1.62l-6.88,4c-9.216-17.1-14.337-36.105-14.96-55.52h8
			c2.297,0,4.16-1.862,4.16-4.16c0-2.297-1.862-4.16-4.16-4.16h-8c0.599-19.348,5.664-38.295,14.8-55.36l6.76,4
			c1.977,1.16,4.52,0.497,5.68-1.48s0.497-4.52-1.48-5.68l-6.8-4c10.278-16.371,24.148-30.187,40.56-40.4l4,6.8
			c1.105,1.999,3.621,2.725,5.62,1.62c1.999-1.105,2.725-3.621,1.62-5.62l-4-6.88c17.1-9.216,36.105-14.337,55.52-14.96v8
			c0,2.209,1.791,4,4,4c2.209,0,4-1.791,4-4v-8c19.348,0.599,38.295,5.664,55.36,14.8l-4,6.76c-1.16,1.977-0.497,4.52,1.48,5.68
			c1.977,1.16,4.52,0.497,5.68-1.48l4-6.8c16.486,10.241,30.414,24.114,40.72,40.56l-6.8,4c-1.999,1.105-2.725,3.621-1.62,5.62
			s3.621,2.725,5.62,1.62l6.88-4c9.216,17.1,14.337,36.105,14.96,55.52h-8c-2.298,0-4.16,1.862-4.16,4.16
			c0,2.298,1.862,4.16,4.16,4.16h8C285.081,183.068,280.016,202.015,270.88,219.08z"/>
	</g>
</g>
<g>
</g>
<g>
</g>
<g>
</g>
<g>
</g>
<g>
</g>
<g>
</g>
<g>
</g>
<g>
</g>
<g>
</g>
<g>
</g>
<g>
</g>
<g>
</g>
<g>
</g>
<g>
</g>
<g>
</g>
</svg>
