<?xml version="1.0" encoding="iso-8859-1"?>
<!-- Generator: Adobe Illustrator 19.0.0, SVG Export Plug-In . SVG Version: 6.00 Build 0)  -->
<svg version="1.1" id="Capa_1" xmlns="http://www.w3.org/2000/svg" xmlns:xlink="http://www.w3.org/1999/xlink" x="0px" y="0px"
	 viewBox="0 0 349.32 349.32" style="enable-background:new 0 0 349.32 349.32;" xml:space="preserve">
<g>
	<g>
		<path d="M328.92,83.279H248v-2.56c-0.022-21.839-17.721-39.538-39.56-39.56h-67.32c-21.839,0.022-39.538,17.721-39.56,39.56v2.56
			H20.68C9.259,83.279,0,92.538,0,103.959v67.4c0,2.209,1.791,4,4,4h4.28v102.4c-0.067,16.723,13.436,30.334,30.159,30.401
			c0.12,0,0.241,0,0.361-0.001h272c16.692-0.022,30.218-13.548,30.24-30.24v-102.4h4.28c2.209,0,4-1.791,4-4v-67.56
			C349.321,92.647,340.232,83.433,328.92,83.279z M109.92,80.719c0.022-17.244,13.996-31.218,31.24-31.24h67.32
			c17.244,0.022,31.218,13.996,31.24,31.24v2.56h-129.8V80.719z M332.8,277.919c-0.022,12.128-9.872,21.942-22,21.92c0,0,0,0,0,0
			h-272c-12.097-0.022-21.898-9.823-21.92-21.92v-102.4H151.4v19.16c0,12.636,10.244,22.88,22.88,22.88s22.88-10.244,22.88-22.88
			v-19.16H332.8V277.919z M159.72,194.68v-57.4h29.12v57.4c-0.005,8.041-6.528,14.556-14.569,14.551
			C166.237,209.226,159.725,202.714,159.72,194.68z M341.24,167.12h-144v-34c0-2.209-1.791-4-4-4h-37.68c-2.209,0-4,1.791-4,4v34.08
			H8.36v-63.24c0.022-6.811,5.549-12.32,12.36-12.32h308.24c6.795,0.022,12.298,5.525,12.32,12.32L341.24,167.12z"/>
	</g>
</g>
<g>
	<g>
		<path d="M174.279,185.839c-4.838,0-8.76,3.922-8.76,8.76c0,0.027,0,0.053,0,0.08c0.065,4.798,3.962,8.659,8.76,8.68
			c4.838,0,8.76-3.922,8.76-8.76C183.039,189.761,179.117,185.839,174.279,185.839z"/>
	</g>
</g>
<g>
</g>
<g>
</g>
<g>
</g>
<g>
</g>
<g>
</g>
<g>
</g>
<g>
</g>
<g>
</g>
<g>
</g>
<g>
</g>
<g>
</g>
<g>
</g>
<g>
</g>
<g>
</g>
<g>
</g>
</svg>
