<?xml version="1.0" encoding="iso-8859-1"?>
<!-- Generator: Adobe Illustrator 19.0.0, SVG Export Plug-In . SVG Version: 6.00 Build 0)  -->
<svg version="1.1" id="Capa_1" xmlns="http://www.w3.org/2000/svg" xmlns:xlink="http://www.w3.org/1999/xlink" x="0px" y="0px"
	 viewBox="0 0 330.06 330.06" style="enable-background:new 0 0 330.06 330.06;" xml:space="preserve">
<g>
	<g>
		<path d="M275.27,38.54h-2.88V26.98C272.39,12.079,260.311,0,245.41,0c-14.901,0-26.98,12.079-26.98,26.98v11.56h-106.8V26.98
			C111.63,12.079,99.551,0,84.65,0S57.67,12.079,57.67,26.98v11.56h-2.88c-19.608,0.022-35.498,15.912-35.52,35.52v44v176.48
			c0.022,19.608,15.912,35.498,35.52,35.52h220.48c19.608-0.022,35.498-15.912,35.52-35.52V74.06
			C310.768,54.452,294.878,38.562,275.27,38.54z M226.75,26.98c0-10.306,8.354-18.66,18.66-18.66c10.306,0,18.66,8.354,18.66,18.66
			v29.04c0,10.306-8.354,18.66-18.66,18.66c-10.306,0-18.66-8.354-18.66-18.66V26.98z M66.03,26.98
			c0-10.306,8.354-18.66,18.66-18.66c10.306,0,18.66,8.354,18.66,18.66v29.04c0,10.306-8.354,18.66-18.66,18.66
			c-10.306,0-18.66-8.354-18.66-18.66V26.98z M302.47,294.62c-0.088,14.966-12.234,27.058-27.2,27.08l0.04,0.12H54.79
			c-15.013-0.022-27.178-12.187-27.2-27.2v-172h274.88V294.62z M302.51,114.06H27.59v-40c0.022-15.013,12.187-27.178,27.2-27.2
			l0.04,0.12h2.88v9.12c0,14.901,12.079,26.98,26.98,26.98s26.98-12.079,26.98-26.98v-9.24h106.8v9.12
			c0,14.901,12.079,26.98,26.98,26.98c14.901,0,26.98-12.079,26.98-26.98v-9.12h2.88c15.013,0.022,27.178,12.187,27.2,27.2V114.06z"
			/>
	</g>
</g>
<g>
	<g>
		<path d="M80.11,131.66H69.75c-10.308,0.022-18.658,8.372-18.68,18.68v10.36c0.022,10.308,8.372,18.658,18.68,18.68h10.36
			c10.308-0.022,18.658-8.372,18.68-18.68v-10.32C98.79,140.057,90.433,131.682,80.11,131.66z M90.47,160.7
			c-0.022,5.713-4.647,10.338-10.36,10.36H69.75c-5.713-0.022-10.338-4.647-10.36-10.36v-10.32
			c0.022-5.713,4.647-10.338,10.36-10.36h10.36c5.713,0.022,10.338,4.647,10.36,10.36V160.7z"/>
	</g>
</g>
<g>
	<g>
		<path d="M140.15,131.66h-10.32c-10.308,0.022-18.658,8.372-18.68,18.68v10.36c0,10.323,8.357,18.698,18.68,18.72h10.36
			c10.307-0.022,18.658-8.372,18.68-18.68v-10.36C158.87,140.041,150.489,131.66,140.15,131.66z M150.51,160.7
			c-0.022,5.713-4.647,10.338-10.36,10.36h-10.32c-5.713-0.022-10.338-4.647-10.36-10.36v-10.32
			c0.022-5.713,4.647-10.338,10.36-10.36h10.36c5.713,0.022,10.338,4.647,10.36,10.36L150.51,160.7z"/>
	</g>
</g>
<g>
	<g>
		<path d="M200.23,131.66h-10.32c-10.308,0.022-18.658,8.372-18.68,18.68v10.36c0.022,10.308,8.372,18.658,18.68,18.68h10.32
			c10.308-0.022,18.658-8.372,18.68-18.68v-10.32C218.91,140.057,210.553,131.682,200.23,131.66z M210.59,160.7
			c-0.022,5.713-4.647,10.338-10.36,10.36h-10.32c-5.713-0.022-10.338-4.647-10.36-10.36v-10.32
			c0.022-5.713,4.647-10.338,10.36-10.36h10.32c5.713,0.022,10.338,4.647,10.36,10.36V160.7z"/>
	</g>
</g>
<g>
	<g>
		<path d="M260.31,131.66h-10.36c-10.308,0.022-18.658,8.372-18.68,18.68v10.36c0.022,10.308,8.372,18.658,18.68,18.68h10.36
			c10.308-0.022,18.658-8.372,18.68-18.68v-10.32C278.99,140.057,270.633,131.682,260.31,131.66z M270.67,160.7
			c-0.022,5.713-4.647,10.338-10.36,10.36h-10.36c-5.713-0.022-10.338-4.647-10.36-10.36v-10.32
			c0.022-5.713,4.647-10.338,10.36-10.36h10.36c5.713,0.022,10.338,4.647,10.36,10.36V160.7z"/>
	</g>
</g>
<g>
	<g>
		<path d="M80.11,197.54H69.75c-10.308,0.022-18.658,8.372-18.68,18.68v10.36c0.022,10.308,8.372,18.658,18.68,18.68h10.36
			c10.308-0.022,18.658-8.372,18.68-18.68v-10.36C98.768,205.912,90.418,197.562,80.11,197.54z M90.47,226.58
			c0.022,5.744-4.616,10.418-10.36,10.44c0,0,0,0,0,0H69.75c-5.713-0.022-10.338-4.647-10.36-10.36v-10.44
			c0.022-5.713,4.647-10.338,10.36-10.36h10.36c5.713,0.022,10.338,4.647,10.36,10.36V226.58z"/>
	</g>
</g>
<g>
	<g>
		<path d="M140.15,197.54h-10.32c-10.308,0.022-18.658,8.372-18.68,18.68v10.36c0.022,10.308,8.372,18.658,18.68,18.68h10.36
			c10.308-0.022,18.658-8.372,18.68-18.68v-10.36C158.848,205.897,150.473,197.54,140.15,197.54z M150.51,226.58
			c0.022,5.744-4.616,10.418-10.36,10.44c0,0,0,0,0,0h-10.32c-5.713-0.022-10.338-4.647-10.36-10.36v-10.44
			c0.022-5.713,4.647-10.338,10.36-10.36h10.36c5.713,0.022,10.338,4.647,10.36,10.36L150.51,226.58z"/>
	</g>
</g>
<g>
	<g>
		<path d="M200.23,197.54h-10.32c-10.308,0.022-18.658,8.372-18.68,18.68v10.36c0.022,10.308,8.372,18.658,18.68,18.68h10.32
			c10.308-0.022,18.658-8.372,18.68-18.68v-10.36C218.888,205.912,210.538,197.562,200.23,197.54z M210.59,226.58
			c0.022,5.744-4.616,10.418-10.36,10.44c0,0,0,0,0,0h-10.32c-5.713-0.022-10.338-4.647-10.36-10.36v-10.44
			c0.022-5.713,4.647-10.338,10.36-10.36h10.32c5.713,0.022,10.338,4.647,10.36,10.36V226.58z"/>
	</g>
</g>
<g>
	<g>
		<path d="M260.31,197.54h-10.36c-10.308,0.022-18.658,8.372-18.68,18.68v10.36c0.022,10.308,8.372,18.658,18.68,18.68h10.36
			c10.308-0.022,18.658-8.372,18.68-18.68v-10.36C278.968,205.912,270.618,197.562,260.31,197.54z M270.67,226.58
			c0.022,5.744-4.616,10.418-10.36,10.44c0,0,0,0,0,0h-10.36c-5.713-0.022-10.338-4.647-10.36-10.36v-10.44
			c0.022-5.713,4.647-10.338,10.36-10.36h10.36c5.713,0.022,10.338,4.647,10.36,10.36V226.58z"/>
	</g>
</g>
<g>
	<g>
		<path d="M80.11,263.38H69.75c-10.308,0.022-18.658,8.372-18.68,18.68v10.36c0.022,10.308,8.372,18.658,18.68,18.68h10.36
			c10.308-0.022,18.658-8.372,18.68-18.68v-10.36C98.768,271.752,90.418,263.402,80.11,263.38z M90.47,292.42
			c-0.022,5.713-4.647,10.338-10.36,10.36H69.75c-5.713-0.022-10.338-4.647-10.36-10.36v-10.36
			c0.022-5.713,4.647-10.338,10.36-10.36h10.36c5.713,0.022,10.338,4.647,10.36,10.36V292.42z"/>
	</g>
</g>
<g>
	<g>
		<path d="M140.15,263.38h-10.32c-10.308,0.022-18.658,8.372-18.68,18.68v10.36c0.022,10.308,8.372,18.658,18.68,18.68h10.36
			c10.308-0.022,18.658-8.372,18.68-18.68v-10.36C158.848,271.737,150.473,263.38,140.15,263.38z M150.51,292.42
			c-0.022,5.713-4.647,10.338-10.36,10.36h-10.32c-5.713-0.022-10.338-4.647-10.36-10.36v-10.36
			c0.022-5.713,4.647-10.338,10.36-10.36h10.36c5.713,0.022,10.338,4.647,10.36,10.36L150.51,292.42z"/>
	</g>
</g>
<g>
	<g>
		<path d="M200.23,263.38h-10.32c-10.308,0.022-18.658,8.372-18.68,18.68v10.36c0.022,10.308,8.372,18.658,18.68,18.68h10.32
			c10.308-0.022,18.658-8.372,18.68-18.68v-10.36C218.888,271.752,210.538,263.402,200.23,263.38z M210.59,292.42
			c-0.022,5.713-4.647,10.338-10.36,10.36h-10.32c-5.713-0.022-10.338-4.647-10.36-10.36v-10.36
			c0.022-5.713,4.647-10.338,10.36-10.36h10.32c5.713,0.022,10.338,4.647,10.36,10.36V292.42z"/>
	</g>
</g>
<g>
	<g>
		<path d="M260.31,263.38h-10.36c-10.308,0.022-18.658,8.372-18.68,18.68v10.36c0.022,10.308,8.372,18.658,18.68,18.68h10.36
			c10.308-0.022,18.658-8.372,18.68-18.68v-10.36C278.968,271.752,270.618,263.402,260.31,263.38z M270.67,292.42
			c-0.022,5.713-4.647,10.338-10.36,10.36h-10.36c-5.713-0.022-10.338-4.647-10.36-10.36v-10.36
			c0.022-5.713,4.647-10.338,10.36-10.36h10.36c5.713,0.022,10.338,4.647,10.36,10.36V292.42z"/>
	</g>
</g>
<g>
</g>
<g>
</g>
<g>
</g>
<g>
</g>
<g>
</g>
<g>
</g>
<g>
</g>
<g>
</g>
<g>
</g>
<g>
</g>
<g>
</g>
<g>
</g>
<g>
</g>
<g>
</g>
<g>
</g>
</svg>
