<svg xmlns="http://www.w3.org/2000/svg" xmlns:xlink="http://www.w3.org/1999/xlink" width="48" height="50" viewBox="0 0 48 50"><defs><path id="j5epa" d="M78.68 1924.26a18.33 18.33 0 0 1-18.2-16.52l1.95 2.42a.6.6 0 0 0 .93-.75l-3.1-3.83-.05-.05h-.05l-.07-.04h-.14l-.12-.09H59.54l-.07.05h-.05l-.04.04-3.1 3.84a.6.6 0 0 0 .92.74l2.06-2.5a19.51 19.51 0 0 0 19.42 17.9.6.6 0 1 0 0-1.21z"/><path id="j5epb" d="M73.95 1901.46H56.22v-6.2c0-1.8 1.46-3.25 3.26-3.25h2.64a.57.57 0 0 0 .33-1.09 4.76 4.76 0 1 1 5.28 0 .57.57 0 0 0 .33 1.1h2.63c1.8 0 3.26 1.45 3.26 3.24v6.2zm-3.26-10.64H69.6a5.95 5.95 0 1 0-9.05 0h-1.08a4.45 4.45 0 0 0-4.44 4.44v6.77c0 .32.26.57.57.57h18.92a.57.57 0 0 0 .6-.57v-6.77a4.45 4.45 0 0 0-4.44-4.44z"/><path id="j5epc" d="M101.15 1929.73H83.42v-6.15c0-1.8 1.46-3.25 3.26-3.25h2.64a.57.57 0 0 0 .33-1.1 4.76 4.76 0 1 1 5.28 0 .57.57 0 0 0 .33 1.1h2.63c1.8 0 3.26 1.45 3.26 3.25v6.15zm-3.26-10.62H96.8a5.95 5.95 0 1 0-9.06 0h-1.07a4.45 4.45 0 0 0-4.44 4.44v6.77c0 .31.26.57.57.57h18.9c.31 0 .57-.26.57-.57v-6.74a4.45 4.45 0 0 0-4.4-4.47z"/><path id="j5epd" d="M100.9 1901.68a.6.6 0 0 0-.83.09l-1.96 2.61a19.49 19.49 0 0 0-22.78-17.6.6.6 0 0 0 .2 1.16 18.29 18.29 0 0 1 21.37 16.24l-1.96-2.41a.6.6 0 0 0-.93.75l3.1 3.83.05.05.09.04.04.04c.07.02.14.04.21.04.08 0 .15-.02.21-.04l.05-.04a.57.57 0 0 0 .09-.04l.04-.05 3.1-3.83a.6.6 0 0 0-.08-.84z"/></defs><g><g transform="translate(-55 -1881)"><use fill="#034859" xlink:href="#j5epa"/></g><g transform="translate(-55 -1881)"><use fill="#034859" xlink:href="#j5epb"/></g><g transform="translate(-55 -1881)"><use fill="#034859" xlink:href="#j5epc"/></g><g transform="translate(-55 -1881)"><use fill="#034859" xlink:href="#j5epd"/></g></g></svg>