<svg xmlns="http://www.w3.org/2000/svg" xmlns:xlink="http://www.w3.org/1999/xlink" width="62" height="34" viewBox="0 0 62 34"><defs><path id="hv71a" d="M110.26 2072.6c0 2.34-1.9 4.23-4.24 4.23H55.65a4.24 4.24 0 0 1-4.24-4.23v-21.75c0-2.34 1.9-4.24 4.24-4.24h50.37c2.35 0 4.24 1.9 4.24 4.24zm-4.2-27.43H55.64a5.65 5.65 0 0 0-5.65 5.65v21.78a5.65 5.65 0 0 0 5.65 5.65h50.37a5.65 5.65 0 0 0 5.66-5.65v-21.75a5.65 5.65 0 0 0-5.63-5.68z"/><path id="hv71b" d="M102.9 2072.95H58.8a4.49 4.49 0 0 0-3.68-3.68v-15.09a4.49 4.49 0 0 0 3.68-3.68h44.1a4.49 4.49 0 0 0 3.68 3.68l.02 15.1a4.49 4.49 0 0 0-3.68 3.67zm4.4-20.18c-1.66 0-3-1.35-3-3a.7.7 0 0 0-.71-.71H58.12a.7.7 0 0 0-.71.7c0 1.66-1.35 3-3 3a.7.7 0 0 0-.71.72v16.47c0 .4.32.7.7.7 1.66.01 3 1.35 3 3.01 0 .39.33.7.72.7h45.44a.7.7 0 0 0 .7-.7c0-1.66 1.35-3 3-3a.7.7 0 0 0 .71-.7v-16.46a.7.7 0 0 0-.67-.73z"/><path id="hv71c" d="M80.84 2070a8.27 8.27 0 1 1 8.26-8.27c0 4.56-3.7 8.26-8.26 8.26zm0-18.01a9.74 9.74 0 1 0 0 19.47 9.74 9.74 0 0 0 0-19.47z"/><path id="hv71d" d="M82.52 2063.23c0 .32-.11.63-.33.87-.25.26-.59.43-.95.48v-2.65c.35.1.67.26.96.5.22.2.34.5.32.8zm-2.85-3.54a1.12 1.12 0 0 1 0-1.47c.23-.18.5-.32.79-.4l.02 2.32c-.3-.1-.57-.25-.81-.45zm4.12 2.34a2.27 2.27 0 0 0-1.35-1.3c-.3-.1-.7-.23-1.2-.37v-2.52c.48.14.85.52.96 1 .06.38.39.66.77.65.2 0 .4-.07.54-.22a.7.7 0 0 0 .22-.52c0-.21-.06-.42-.15-.6-.1-.24-.25-.45-.42-.64-.22-.26-.5-.47-.8-.6a3.8 3.8 0 0 0-1.12-.28v-.65c0-.33-.13-.49-.39-.49s-.38.17-.38.5v.65c-.7.02-1.39.3-1.91.78a2.6 2.6 0 0 0-.33 3c.22.34.53.61.89.8.43.2.88.37 1.35.5v2.82a1.48 1.48 0 0 1-1.02-.81c-.1-.25-.2-.5-.28-.76a.66.66 0 0 0-.26-.35.8.8 0 0 0-.46-.13.76.76 0 0 0-.56.23.7.7 0 0 0-.23.53c0 .27.06.54.17.8.13.29.3.55.52.78.26.26.55.48.89.63.39.18.8.29 1.23.33v1.58c0 .15.02.29.09.41.07.1.18.15.3.14a.3.3 0 0 0 .3-.17c.06-.16.08-.34.07-.52v-1.47a3.39 3.39 0 0 0 1.5-.45 2.68 2.68 0 0 0 1.05-3.29z"/></defs><g><g transform="translate(-50 -2045)"><use fill="#034859" xlink:href="#hv71a"/></g><g transform="translate(-50 -2045)"><use fill="#034859" xlink:href="#hv71b"/></g><g transform="translate(-50 -2045)"><use fill="#034859" xlink:href="#hv71c"/></g><g transform="translate(-50 -2045)"><use fill="#034859" xlink:href="#hv71d"/></g></g></svg>