<svg xmlns="http://www.w3.org/2000/svg" xmlns:xlink="http://www.w3.org/1999/xlink" width="40" height="40" viewBox="0 0 40 40"><defs><path id="1c6pa" d="M98.6 2388.85a3.76 3.76 0 0 1-3.75 3.76h-29.7a3.76 3.76 0 0 1-3.76-3.76v-29.7a3.76 3.76 0 0 1 3.76-3.76h29.7a3.76 3.76 0 0 1 3.76 3.76zM94.86 2354h-29.7a5.16 5.16 0 0 0-5.15 5.15v29.7a5.16 5.16 0 0 0 5.15 5.15h29.7a5.16 5.16 0 0 0 5.15-5.15v-29.7a5.16 5.16 0 0 0-5.15-5.15z"/><path id="1c6pb" d="M95.5 2373.37H80.6v-13.43a.69.69 0 0 0-.7-.69c-.38 0-.7.3-.7.69v13.43H63.6a.7.7 0 0 0 0 1.4h15.6v15.64a.7.7 0 1 0 1.4 0v-15.64h14.9a.7.7 0 0 0 0-1.4z"/><path id="1c6pc" d="M74.87 2363.71h-3.76v-3.76a.7.7 0 0 0-1.4 0v3.76h-3.76a.7.7 0 0 0 0 1.4h3.76v3.76a.7.7 0 0 0 1.4 0v-3.76h3.76a.7.7 0 0 0 0-1.4z"/><path id="1c6pd" d="M94.05 2363.59h-8.92c-.39 0-.7.32-.7.72 0 .4.31.73.7.73h8.92c.38 0 .7-.33.7-.73 0-.4-.32-.72-.7-.72z"/><path id="1c6pe" d="M94.05 2380.79h-8.92c-.39 0-.7.32-.7.72 0 .4.31.73.7.73h8.92c.38 0 .7-.33.7-.73 0-.4-.32-.72-.7-.72z"/><path id="1c6pf" d="M94.05 2385.13h-8.92c-.39 0-.7.32-.7.72 0 .4.31.73.7.73h8.92c.38 0 .7-.33.7-.73 0-.4-.32-.72-.7-.72z"/><path id="1c6pg" d="M71.4 2383.6l3.23-3.24a.7.7 0 0 0-.99-1l-3.24 3.24-3.23-3.23a.7.7 0 0 0-1 .99l3.24 3.23-3.23 3.24a.7.7 0 0 0 .99 1l3.23-3.25 3.24 3.24a.7.7 0 0 0 1 0 .7.7 0 0 0 0-.99z"/></defs><g><g transform="translate(-60 -2354)"><use fill="#034859" xlink:href="#1c6pa"/></g><g transform="translate(-60 -2354)"><use fill="#034859" xlink:href="#1c6pb"/></g><g transform="translate(-60 -2354)"><use fill="#034859" xlink:href="#1c6pc"/></g><g transform="translate(-60 -2354)"><use fill="#034859" xlink:href="#1c6pd"/></g><g transform="translate(-60 -2354)"><use fill="#034859" xlink:href="#1c6pe"/></g><g transform="translate(-60 -2354)"><use fill="#034859" xlink:href="#1c6pf"/></g><g transform="translate(-60 -2354)"><use fill="#034859" xlink:href="#1c6pg"/></g></g></svg>