<svg xmlns="http://www.w3.org/2000/svg" xmlns:xlink="http://www.w3.org/1999/xlink" width="50" height="50" viewBox="0 0 50 50"><defs><path id="z1gua" d="M433.57 3155.53h-47.14c-.79 0-1.43-.68-1.43-1.53 0-.84.64-1.53 1.43-1.53h47.14c.79 0 1.43.69 1.43 1.53 0 .85-.64 1.53-1.43 1.53z"/><path id="z1gub" d="M410.14 3179c-.35 0-.7-.13-.97-.4l-23.74-23.58a1.44 1.44 0 0 1 0-2.05l23.74-23.57a1.37 1.37 0 0 1 1.97.03c.53.57.52 1.48-.03 2.02L388.39 3154l22.72 22.54c.55.55.56 1.46.03 2.02-.28.3-.64.44-1 .44z"/></defs><g><g transform="translate(-385 -3129)"><g><use fill="#a1bee6" xlink:href="#z1gua"/></g><g><use fill="#a1bee6" xlink:href="#z1gub"/></g></g></g></svg>