<svg xmlns="http://www.w3.org/2000/svg" xmlns:xlink="http://www.w3.org/1999/xlink" width="15" height="15" viewBox="0 0 15 15"><defs><path id="h0o9a" d="M833.6 11229.28c.03-2.11-1.77-4.04-4-4.31l-.14-.02a2.08 2.08 0 0 0-.34-.04c-.45 0-.58.32-.6.51a.6.6 0 0 0 .08.47c.15.2.42.24.63.27l.17.02c2 .45 2.67 1.15 3 3.14l.02.17c.01.23.04.73.57.73l.14-.01c.5-.08.48-.53.47-.75v-.15-.03z"/><path id="h0o9b" d="M828.99 11224.2h.16c3.28.51 4.8 2.07 5.2 5.38.02.05.02.12.02.2 0 .25.01.8.59.8h.02c.18 0 .32-.05.42-.16.18-.19.17-.47.16-.7v-.14a6.69 6.69 0 0 0-6.35-6.57h-.12l-.17-.01c-.54 0-.65.38-.66.61-.03.53.48.57.73.58z"/><path id="h0o9c" d="M834.2 11233.85l-.2-.16a20.05 20.05 0 0 0-1.34-.98c-.47-.33-.9-.49-1.3-.49-.54 0-1.01.3-1.4.89-.17.26-.38.39-.64.39-.15 0-.33-.05-.51-.13a6.2 6.2 0 0 1-3.24-3.15c-.3-.68-.2-1.12.33-1.48.3-.2.86-.59.82-1.31-.05-.83-1.87-3.32-2.64-3.6a1.5 1.5 0 0 0-1.02 0c-.88.3-1.51.82-1.83 1.5-.3.67-.3 1.45.04 2.27.96 2.35 2.3 4.4 4 6.1a19.41 19.41 0 0 0 6.08 4.03c.21.1.44.14.6.18l.14.03h.08c1.11 0 2.45-1 2.86-2.17.36-1.02-.3-1.52-.82-1.92z"/><path id="h0o9d" d="M829.48 11226.88c-.19 0-.59.02-.73.42-.06.19-.05.35.03.49.12.2.34.25.55.29.74.12 1.13.53 1.2 1.3.04.36.28.6.6.6h.06c.37-.04.55-.32.54-.81 0-.52-.27-1.1-.73-1.57a2.16 2.16 0 0 0-1.52-.72z"/></defs><g><g transform="translate(-821 -11223)"><g><use fill="#f9f9f9" xlink:href="#h0o9a"/></g><g><use fill="#f9f9f9" xlink:href="#h0o9b"/></g><g><use fill="#f9f9f9" xlink:href="#h0o9c"/></g><g><use fill="#f9f9f9" xlink:href="#h0o9d"/></g></g></g></svg>