<svg xmlns="http://www.w3.org/2000/svg" xmlns:xlink="http://www.w3.org/1999/xlink" width="14" height="15" viewBox="0 0 14 15"><defs><path id="r7u8a" d="M834.2 11233.85l-.2-.16a20.05 20.05 0 0 0-1.34-.98c-.47-.33-.9-.49-1.3-.49-.54 0-1.01.3-1.4.89-.17.26-.38.39-.64.39-.15 0-.33-.05-.51-.13a6.2 6.2 0 0 1-3.24-3.15c-.3-.68-.2-1.12.33-1.48.3-.2.86-.59.82-1.31-.05-.83-1.87-3.32-2.64-3.6a1.5 1.5 0 0 0-1.02 0c-.88.3-1.51.82-1.83 1.5-.3.67-.3 1.45.04 2.27.96 2.35 2.3 4.4 4 6.1a19.41 19.41 0 0 0 6.08 4.03c.21.1.44.14.6.18l.14.03h.08c1.11 0 2.45-1 2.86-2.17.36-1.02-.3-1.52-.82-1.92z"/></defs><g><g transform="translate(-821 -11223)"><use fill="#f9f9f9" xlink:href="#r7u8a"/></g></g></svg>