<svg xmlns="http://www.w3.org/2000/svg" xmlns:xlink="http://www.w3.org/1999/xlink" width="30" height="30" viewBox="0 0 30 30"><defs><path id="jlf4a" d="M765 8708.73l-2 2-3.73-3.75c2.18-2.18 2.04-2.1 2.27-2.1.28 0 .12-.08 3.42 3.22.18.18.2.47.04.63zm-2.38 3.76c-.16.16-.45.14-.63-.04l-4.45-4.44c-.19-.19-.2-.47-.04-.64.16-.16.24-.27.44-.27a.5.5 0 0 1 .35.15c4.82 4.81 4.6 4.5 4.6 4.78.01.21-.11.3-.27.46zm-1.22 1.21l-.16.16c-.16.17-.45.15-.63-.04l-1.5-1.48c0-.02-2.9-2.9-2.92-2.92-.25-.26-.22-.53-.07-.67.16-.17.24-.27.44-.27.28 0-.01-.22 4.8 4.59.19.18.2.47.04.63zm-18.7 16.95l-2.62 1-1.78-1.78 1-2.62 3.4 3.4zm-5.5 2.08l.75-1.96 1.23 1.22zm28.4-25.25l-3.08-3.07a1.33 1.33 0 0 0-1.88-.04l-2.03 2.03a1.31 1.31 0 0 0-1.57.2c-.18.17-.5.44-.53 1-.56.02-.83.34-1.01.53a1.3 1.3 0 0 0-.2 1.56c-17.66 17.63-16.52 16.46-16.58 16.61l-2.69 7.05c-.14.35.21.7.57.56 7.6-2.89 7.11-2.69 7.2-2.78l2.9-2.88 13.6-13.57c.2.11.43.17.66.17.59 0 .87-.34 1.07-.53.23-.23.35-.54.36-.85.33 0 .63-.14.85-.36.18-.18.55-.49.53-1.1 0-.23-.06-.44-.17-.63l2.03-2.03c.5-.5.49-1.35-.04-1.87zm-22.1 22.72l-1.57-1.56 12-11.97c.05-.02.1-.06.13-.1l4.02-4.03.36.36 1.2 1.2-13.57 13.53zm10.7-15.04l-12.89 12.86-1.56-1.56 16.14-16.1 1.56 1.56-3.13 3.15a.44.44 0 0 0-.12.09z"/></defs><g><g transform="translate(-736 -8704)"><use fill="#034859" xlink:href="#jlf4a"/></g></g></svg>