<svg xmlns="http://www.w3.org/2000/svg" xmlns:xlink="http://www.w3.org/1999/xlink" width="53" height="40" viewBox="0 0 53 40"><defs><path id="nynxa" d="M103.93 2216.82h-21.5v-5.07a.6.6 0 0 0-.59-.6h-5.62a.6.6 0 0 0-.6.6v5.08H54.25v-9.44c0-1.01.83-1.84 1.84-1.84h46c1.02 0 1.84.83 1.85 1.84zm-27.1 4.11v-8.56h4.36v8.56a2.17 2.17 0 0 1-4.35 0zm25.84 12.43a3.28 3.28 0 0 1-3.28 3.27h-40.6a3.28 3.28 0 0 1-3.27-3.27v-15.29H75.6v2.86a3.41 3.41 0 0 0 6.83 0v-2.86h20.24zm-33.26-29.43a4.67 4.67 0 0 1 4.66-4.67h10.05c2.57 0 4.66 2.1 4.66 4.67v.39H69.4zm32.68.38H90.01v-.39c0-3.26-2.64-5.9-5.9-5.9H74.06a5.91 5.91 0 0 0-5.9 5.9v.39H56.09a3.09 3.09 0 0 0-3.09 3.08v10.06c0 .33.27.6.6.6h.64v15.28c-.01 2.5 2 4.53 4.5 4.54h40.65c2.49 0 4.5-2.02 4.51-4.51v-15.29h.64a.6.6 0 0 0 .6-.6v-10.08a3.09 3.09 0 0 0-3.05-3.08z"/><path id="nynxb" d="M79 2214.47c-.71 0-1.3.59-1.3 1.3v.02c.01.72.6 1.3 1.3 1.3a1.3 1.3 0 0 0 0-2.62z"/></defs><g><g transform="translate(-53 -2198)"><use fill="#034859" xlink:href="#nynxa"/></g><g transform="translate(-53 -2198)"><use fill="#034859" xlink:href="#nynxb"/></g></g></svg>