<svg xmlns="http://www.w3.org/2000/svg" xmlns:xlink="http://www.w3.org/1999/xlink" width="53" height="51" viewBox="0 0 53 51"><defs><path id="iq4ha" d="M572.7 3891.37a19.71 19.71 0 0 1-19.7-19.69 19.71 19.71 0 0 1 19.7-19.68 19.56 19.56 0 0 1 13.9 5.76 19.7 19.7 0 0 1-13.92 33.61z"/><path id="iq4hb" d="M587.5 3884.5L604 3901"/><path id="iq4hc" d="M572.5 3859a1 1 0 0 1 1 1v10.5H584a1 1 0 0 1 0 2h-10.5v10.5a1 1 0 0 1-2 0v-10.5H561a1 1 0 0 1 0-2h10.5V3860a1 1 0 0 1 1-1z"/></defs><g><g transform="translate(-552 -3851)"><g><use fill="#fff" fill-opacity="0" stroke="#fff" stroke-miterlimit="50" stroke-width="2" xlink:href="#iq4ha"/></g><g><use fill="#fff" fill-opacity="0" stroke="#fff" stroke-linecap="round" stroke-miterlimit="50" stroke-width="2" xlink:href="#iq4hb"/></g><g><use fill="#fff" xlink:href="#iq4hc"/></g></g></g></svg>